#!OML:ASF E:\Steps\Project 1\Capture day 1\Session 2\Subject.ASF
:FULLY-SPECIFIED
:DEGREES
245
root 15.6135 15.3797 19.4071 -171.756 -10.2987 165.918
lowerback -19.8788 -0.735198 -1.66511
upperback 3.21981 -0.432022 -1.06907
thorax 14.9332 -0.286109 -0.409695
lowerneck -1.21107 5.60634 -2.37275
upperneck 15.8542 7.12225 -0.6165
head 4.89874 3.00636 0.492312
rclavicle -1.16289e-014 4.45278e-014
rhumerus -39.7864 -13.5674 -72.7539
rradius 37.666
rwrist -1.69007
rhand -7.62364 -417.013
rfingers 7.12502
rthumb 18.2709 -446.175
lclavicle -1.16289e-014 4.45278e-014
lhumerus -37.3644 12.8838 73.9967
lradius 21.7735
lwrist -7.04101
lhand -19.9443 -15.9564
lfingers 7.12502
lthumb 6.39356 13.9271
rfemur -7.18773 4.80252 10.1054
rtibia 40.2194
rfoot -43.1227 -15.5117
rtoes -30.1961
lfemur -61.0338 4.80331 3.10015
ltibia 36.5913
lfoot 11.0394 14.9368
ltoes -12.5814
246
root 15.5606 15.351 19.3427 -171.937 -10.0786 165.918
lowerback -19.861 -0.609583 -1.45209
upperback 3.20359 -0.314495 -1.09522
thorax 14.9002 -0.212631 -0.522441
lowerneck -1.07149 5.64686 -2.13306
upperneck 15.8778 7.1857 -0.893624
head 4.90168 3.02986 0.368032
rclavicle 1.3418e-014 -1.27222e-014
rhumerus -39.8597 -13.3936 -72.6759
rradius 37.8575
rwrist -2.01095
rhand -7.60888 -417.235
rfingers 7.12502
rthumb 18.2851 -446.396
lclavicle 1.3418e-014 -1.27222e-014
lhumerus -37.6154 12.8105 73.8504
lradius 21.987
lwrist -6.6842
lhand -19.9683 -15.8232
lfingers 7.12502
lthumb 6.37042 14.061
rfemur -6.87948 4.94327 9.99018
rtibia 40.4875
rfoot -43.2808 -15.8618
rtoes -31.5377
lfemur -60.3836 4.81844 3.5833
ltibia 35.4139
lfoot 11.6816 15.1696
ltoes -15.2757
247
root 15.5 15.3213 19.2777 -172.121 -9.83489 166.007
lowerback -19.8839 -0.494188 -1.0835
upperback 3.22175 -0.254454 -1.06263
thorax 14.933 -0.154146 -0.676489
lowerneck -1.11927 5.61137 -2.12424
upperneck 15.9377 7.15653 -1.05545
head 4.93499 3.00152 0.318078
rclavicle 2.39536e-014 1.74931e-014
rhumerus -39.8178 -13.1458 -72.5179
rradius 38.012
rwrist -2.2995
rhand -7.54232 -416.845
rfingers 7.12502
rthumb 18.3492 -445.999
lclavicle 2.39536e-014 1.74931e-014
lhumerus -37.7602 12.9421 73.7704
lradius 22.1052
lwrist -6.41398
lhand -19.7969 -15.8976
lfingers 7.12502
lthumb 6.53586 13.9815
rfemur -6.4092 5.2074 9.92039
rtibia 40.385
rfoot -43.3603 -15.7942
rtoes -31.8249
lfemur -59.7867 4.72395 4.2556
ltibia 34.3839
lfoot 11.8451 15.6472
ltoes -15.4283
248
root 15.4404 15.2913 19.2108 -172.376 -9.5927 166.063
lowerback -19.8141 -0.394482 -0.777506
upperback 3.20714 -0.200197 -1.04842
thorax 14.8721 -0.103237 -0.816158
lowerneck -1.00126 5.56569 -2.07605
upperneck 15.932 7.10001 -1.22443
head 4.9219 2.96236 0.252325
rclavicle 2.71341e-014 3.18055e-015
rhumerus -40.0634 -12.6927 -72.4532
rradius 38.3789
rwrist -2.55754
rhand -7.5164 -416.727
rfingers 7.12502
rthumb 18.3741 -445.879
lclavicle 2.71341e-014 3.18055e-015
lhumerus -37.9798 13.2466 73.5302
lradius 22.0644
lwrist -6.42798
lhand -19.8172 -15.7513
lfingers 7.12502
lthumb 6.51628 14.1284
rfemur -6.07548 5.32407 9.79865
rtibia 40.846
rfoot -43.8142 -15.6231
rtoes -32.2269
lfemur -59.1355 4.60009 4.87261
ltibia 33.4315
lfoot 11.7431 16.1139
ltoes -14.048
249
root 15.3816 15.2634 19.148 -172.543 -9.34917 166.039
lowerback -19.7311 -0.261307 -0.556124
upperback 3.16053 -0.0726089 -1.10107
thorax 14.7671 -0.0237332 -0.959991
lowerneck -0.82111 5.64056 -1.94606
upperneck 15.9883 7.18919 -1.33208
head 4.91767 3.00061 0.197529
rclavicle -1.17283e-014 1.59028e-014
rhumerus -40.4109 -12.3673 -72.467
rradius 38.8664
rwrist -2.79172
rhand -7.52853 -417.139
rfingers 7.12502
rthumb 18.3624 -446.292
lclavicle -1.17283e-014 1.59028e-014
lhumerus -38.1171 13.3823 73.2099
lradius 21.8211
lwrist -6.60095
lhand -19.9261 -15.8229
lfingers 7.12502
lthumb 6.41111 14.0601
rfemur -5.74559 5.52717 9.60719
rtibia 41.0786
rfoot -44.0342 -15.6644
rtoes -32.7495
lfemur -58.613 4.57619 5.293
ltibia 32.5276
lfoot 12.117 16.1882
ltoes -16.0814
250
root 15.3168 15.2364 19.0907 -172.542 -9.06571 166.026
lowerback -19.7343 -0.181732 -0.256753
upperback 3.11493 -0.0419258 -1.09613
thorax 14.7148 0.0156064 -1.11481
lowerneck -0.851253 5.89789 -2.26075
upperneck 16.0748 7.52741 -1.11536
head 4.92869 3.15722 0.330478
rclavicle -2.18663e-015 6.52014e-014
rhumerus -40.4798 -11.8548 -72.4675
rradius 39.3378
rwrist -3.1941
rhand -7.59333 -417.357
rfingers 7.12502
rthumb 18.3001 -446.516
lclavicle -2.18663e-015 6.52014e-014
lhumerus -38.2672 13.5898 73.0157
lradius 21.6426
lwrist -6.54865
lhand -20.1755 -16.5319
lfingers 7.12502
lthumb 6.17035 13.3582
rfemur -5.6118 5.65815 9.33929
rtibia 41.2281
rfoot -44.1523 -15.5088
rtoes -33.077
lfemur -58.2916 4.62324 5.71684
ltibia 31.7113
lfoot 12.4573 16.2879
ltoes -17.2139
251
root 15.2512 15.2108 19.0281 -172.65 -8.87713 166.025
lowerback -19.601 -0.0384189 0.127373
upperback 3.01261 0.0655964 -1.20928
thorax 14.5163 0.101407 -1.4261
lowerneck -0.755686 5.95896 -2.12266
upperneck 16.3002 7.5663 -0.997199
head 4.98232 3.17808 0.346143
rclavicle 9.24349e-015 -2.22639e-014
rhumerus -40.7198 -11.5427 -72.5423
rradius 39.7254
rwrist -3.56147
rhand -7.67741 -417.5
rfingers 7.12502
rthumb 18.2192 -446.667
lclavicle 9.24349e-015 -2.22639e-014
lhumerus -38.6562 13.2767 72.7573
lradius 21.7496
lwrist -6.27687
lhand -20.3757 -16.9462
lfingers 7.12502
lthumb 5.97714 12.9495
rfemur -5.30434 5.76535 9.13974
rtibia 41.4233
rfoot -44.387 -15.4768
rtoes -33.9232
lfemur -57.8657 4.56907 6.1029
ltibia 30.886
lfoot 12.6288 16.4925
ltoes -16.0998
252
root 15.1871 15.1853 18.963 -172.903 -8.79506 166.131
lowerback -19.5799 -0.041335 0.345518
upperback 3.14133 -0.00474348 -1.07474
thorax 14.6543 0.0840418 -1.42103
lowerneck -0.800359 5.92648 -2.20824
upperneck 16.1984 7.55514 -1.14644
head 4.96146 3.16336 0.313736
rclavicle -2.98177e-015 -4.77083e-015
rhumerus -40.2899 -10.9847 -72.5284
rradius 39.7793
rwrist -3.76991
rhand -7.63322 -417.477
rfingers 7.12502
rthumb 18.2617 -446.64
lclavicle -2.98177e-015 -4.77083e-015
lhumerus -38.8089 13.5835 72.662
lradius 21.7707
lwrist -6.33138
lhand -20.3968 -17.1018
lfingers 7.12502
lthumb 5.95673 12.7944
rfemur -4.84925 5.81445 9.108
rtibia 41.645
rfoot -44.4626 -15.9304
rtoes -35.6477
lfemur -57.3416 4.40629 6.56402
ltibia 30.0584
lfoot 12.7964 16.5027
ltoes -16.8014
253
root 15.1167 15.1571 18.9069 -172.904 -8.53803 166.354
lowerback -19.6213 0.0831922 0.841277
upperback 3.11971 0.0297551 -0.999622
thorax 14.6553 0.138617 -1.60781
lowerneck -0.837819 5.93464 -2.27123
upperneck 16.1252 7.58414 -1.19866
head 4.94492 3.17494 0.309296
rclavicle 1.60022e-014 -2.8625e-014
rhumerus -40.0102 -10.5564 -72.5261
rradius 39.8995
rwrist -3.78856
rhand -7.5312 -417.459
rfingers 7.12502
rthumb 18.3599 -446.613
lclavicle 1.60022e-014 -2.8625e-014
lhumerus -38.9919 13.6003 72.5679
lradius 21.7516
lwrist -6.28151
lhand -20.331 -17.2419
lfingers 7.12502
lthumb 6.02022 12.6526
rfemur -4.85704 5.80648 9.03206
rtibia 42.0122
rfoot -44.631 -15.8196
rtoes -35.8834
lfemur -57.0939 4.42844 7.23987
ltibia 29.3969
lfoot 12.5918 16.6765
ltoes -17.2915
254
root 15.0449 15.1352 18.8304 -173.392 -8.55327 166.553
lowerback -19.4623 0.105406 1.28813
upperback 3.28224 -0.0562589 -0.923585
thorax 14.7507 0.137645 -1.80376
lowerneck -0.874859 5.98363 -2.34151
upperneck 16.1953 7.6564 -1.22149
head 4.97092 3.20036 0.318722
rclavicle -3.67752e-015 3.18055e-015
rhumerus -39.9787 -10.1585 -72.4608
rradius 40.3559
rwrist -3.78009
rhand -7.17015 -417.798
rfingers 7.12502
rthumb 18.7072 -446.919
lclavicle -3.67752e-015 3.18055e-015
lhumerus -39.1903 13.854 72.3561
lradius 21.6477
lwrist -6.40737
lhand -20.3603 -17.2603
lfingers 7.12502
lthumb 5.99199 12.6349
rfemur -3.87732 5.86818 9.13875
rtibia 41.8994
rfoot -45.0305 -15.2655
rtoes -34.5577
lfemur -56.3448 4.13014 7.7415
ltibia 28.6066
lfoot 12.5609 16.8549
ltoes -16.2492
255
root 14.9773 15.1042 18.7642 -173.793 -8.56625 166.857
lowerback -19.1761 0.136217 1.75515
upperback 3.38669 -0.137573 -0.824194
thorax 14.6996 0.136808 -1.98094
lowerneck -0.850086 6.08316 -2.31562
upperneck 16.2288 7.79354 -1.26689
head 4.97966 3.26417 0.306309
rclavicle -1.04362e-014 -3.33958e-014
rhumerus -39.9957 -9.87328 -72.4298
rradius 40.8326
rwrist -3.8244
rhand -6.67157 -418.882
rfingers 7.12502
rthumb 19.1867 -447.956
lclavicle -1.04362e-014 -3.33958e-014
lhumerus -39.3696 14.3726 71.9803
lradius 21.4251
lwrist -6.68379
lhand -20.4175 -17.2124
lfingers 7.12502
lthumb 5.93676 12.6844
rfemur -3.17234 5.90518 9.3261
rtibia 41.8755
rfoot -45.3335 -14.9486
rtoes -34.7922
lfemur -55.8369 3.92912 8.33993
ltibia 28.0196
lfoot 12.6397 17.1913
ltoes -14.4677
256
root 14.9088 15.0751 18.6933 -174.238 -8.49053 167.022
lowerback -18.849 0.173043 2.05782
upperback 3.5222 -0.163149 -0.764668
thorax 14.6627 0.149409 -2.09177
lowerneck -0.849655 6.21301 -2.21965
upperneck 16.2698 7.97392 -1.32787
head 4.99822 3.3531 0.280951
rclavicle 1.22253e-014 3.49861e-014
rhumerus -39.9064 -9.60782 -72.4355
rradius 41.2243
rwrist -3.8555
rhand -8.09096 -415.889
rfingers 7.12502
rthumb 17.8213 -445.092
lclavicle 1.22253e-014 3.49861e-014
lhumerus -39.3782 14.845 71.5732
lradius 20.9065
lwrist -7.04751
lhand -20.4039 -17.4361
lfingers 7.12502
lthumb 5.94988 12.4603
rfemur -2.40849 5.8854 9.34004
rtibia 41.7861
rfoot -45.3033 -15.3327
rtoes -36.5462
lfemur -55.1674 3.63722 8.84067
ltibia 27.4053
lfoot 12.7284 17.4106
ltoes -13.7635
257
root 14.8351 15.0445 18.6208 -174.563 -8.3296 167.047
lowerback -18.6343 0.226495 2.25026
upperback 3.58742 -0.136055 -0.744012
thorax 14.6125 0.177349 -2.1681
lowerneck -0.791204 6.21569 -2.1888
upperneck 16.3841 7.96663 -1.35877
head 5.02631 3.34085 0.265795
rclavicle -1.63003e-014 -2.8625e-014
rhumerus -39.8653 -9.32467 -72.3909
rradius 41.5927
rwrist -3.75221
rhand -6.42977 -417.996
rfingers 7.12502
rthumb 19.4192 -447.046
lclavicle -1.63003e-014 -2.8625e-014
lhumerus -39.2982 15.1408 71.2261
lradius 20.1639
lwrist -7.35017
lhand -20.4138 -17.7803
lfingers 7.12502
lthumb 5.94033 12.1164
rfemur -1.75097 5.89877 9.16256
rtibia 41.7879
rfoot -45.4948 -15.696
rtoes -38.138
lfemur -54.5594 3.42393 9.15676
ltibia 26.7871
lfoot 13.0152 17.5119
ltoes -14.2303
